<svg xmlns="http://www.w3.org/2000/svg" width="5184" viewBox="0 0 5184 2592" height="2592" version="1.0"><defs><clipPath id="a"><path d="M 1 0 L 5183 0 L 5183 2591 L 1 2591 Z M 1 0"/></clipPath><clipPath id="b"><path d="M 1854.773438 0 L 3329.238281 0 L 3329.238281 1210.914062 L 1854.773438 1210.914062 Z M 1854.773438 0"/></clipPath></defs><g clip-path="url(#a)"><path fill="#FFF" d="M 1 0 L 5183 0 L 5183 2598.496094 L 1 2598.496094 Z M 1 0"/></g><path fill="#FFF" d="M 1 0 L 5183 0 L 5183 2591 L 1 2591 Z M 1 0"/><path fill="#D15B24" d="M 1 0 L 5183 0 L 5183 2591 L 1 2591 Z M 1 0"/><g clip-path="url(#b)"><path fill="#57595B" d="M 2775.25 -206.839844 C 2735.574219 -168.535156 2721.027344 -107.753906 2747.460938 -58.167969 C 2769.152344 -17.5 2814.042969 5.289062 2803.25 58.007812 C 2799.289062 77.578125 2788.964844 97.757812 2775.25 112.421875 C 2756.949219 132.050781 2786.410156 161.640625 2804.816406 141.949219 C 2841.992188 102.136719 2858.832031 42.046875 2835.527344 -8.78125 C 2816.859375 -49.429688 2767.273438 -74.03125 2776.136719 -124.695312 C 2779.527344 -144.121094 2790.582031 -163.609375 2804.816406 -177.3125 C 2824.210938 -196.007812 2794.648438 -225.515625 2775.25 -206.839844 Z M 2628.738281 -206.839844 C 2589.007812 -168.535156 2574.511719 -107.753906 2600.949219 -58.167969 C 2622.636719 -17.5 2667.476562 5.289062 2656.738281 58.007812 C 2652.773438 77.578125 2642.449219 97.757812 2628.738281 112.421875 C 2610.4375 132.050781 2639.894531 161.640625 2658.300781 141.949219 C 2695.476562 102.136719 2712.320312 42.046875 2689.011719 -8.78125 C 2670.347656 -49.429688 2620.707031 -74.03125 2629.625 -124.695312 C 2633.015625 -144.121094 2644.066406 -163.609375 2658.300781 -177.3125 C 2677.644531 -196.007812 2648.082031 -225.515625 2628.738281 -206.839844 Z M 2482.226562 -206.839844 C 2442.496094 -168.535156 2427.945312 -107.753906 2454.382812 -58.167969 C 2476.074219 -17.5 2520.964844 5.289062 2510.222656 58.007812 C 2506.210938 77.578125 2495.9375 97.757812 2482.226562 112.421875 C 2463.871094 132.050781 2493.382812 161.640625 2511.734375 141.949219 C 2548.964844 102.136719 2565.753906 42.046875 2542.445312 -8.78125 C 2523.832031 -49.429688 2474.195312 -74.03125 2483.058594 -124.695312 C 2486.449219 -144.121094 2497.554688 -163.609375 2511.734375 -177.3125 C 2531.132812 -196.007812 2501.570312 -225.515625 2482.226562 -206.839844 Z M 3015.253906 332.613281 C 2950.285156 378.332031 2885.265625 424.105469 2820.300781 469.824219 C 2849.1875 474.773438 2878.28125 469.40625 2905.496094 447.875 C 2959.671875 404.867188 3075.003906 372.648438 3153.945312 395.066406 C 3184.707031 403.824219 3207.804688 420.296875 3221.933594 443.132812 C 3264.429688 427.441406 3275.847656 414.355469 3275.847656 410.183594 C 3275.847656 403.042969 3243.46875 370.824219 3085.015625 343.25 C 3062.960938 339.390625 3039.601562 335.898438 3015.253906 332.613281 Z M 3273.605469 466.070312 C 3272.355469 466.746094 3271.050781 467.425781 3269.746094 468.101562 C 3268.964844 468.46875 3268.289062 468.882812 3267.507812 469.300781 C 3265.316406 470.394531 3263.023438 471.4375 3260.675781 472.535156 C 3260.207031 472.792969 3259.632812 473.003906 3259.164062 473.261719 C 3257.027344 474.253906 3254.835938 475.191406 3252.59375 476.183594 C 3251.550781 476.601562 3250.457031 477.015625 3249.359375 477.484375 C 3247.640625 478.214844 3245.972656 478.894531 3244.148438 479.625 C 3242.894531 480.09375 3241.539062 480.613281 3240.183594 481.136719 C 3238.515625 481.761719 3236.796875 482.4375 3235.023438 483.0625 C 3233.613281 483.585938 3232.050781 484.105469 3230.539062 484.628906 C 3228.816406 485.253906 3227.046875 485.878906 3225.21875 486.503906 C 3223.605469 487.027344 3221.9375 487.597656 3220.265625 488.121094 C 3218.441406 488.746094 3216.566406 489.320312 3214.636719 489.945312 C 3212.914062 490.464844 3211.140625 491.039062 3209.371094 491.5625 C 3207.335938 492.1875 3205.355469 492.761719 3203.269531 493.386719 C 3201.445312 493.90625 3199.566406 494.429688 3197.636719 495 C 3195.5 495.574219 3193.363281 496.199219 3191.121094 496.773438 C 3189.191406 497.296875 3187.15625 497.871094 3185.125 498.390625 C 3182.832031 499.015625 3180.535156 499.589844 3178.136719 500.214844 C 3176.050781 500.683594 3174.019531 501.207031 3171.828125 501.777344 C 3169.378906 502.351562 3166.824219 502.976562 3164.214844 503.550781 C 3162.078125 504.074219 3159.941406 504.59375 3157.699219 505.117188 C 3154.988281 505.6875 3152.222656 506.367188 3149.410156 506.941406 C 3147.167969 507.460938 3144.976562 507.929688 3142.683594 508.398438 C 3139.710938 509.023438 3136.582031 509.703125 3133.507812 510.328125 C 3131.265625 510.796875 3129.023438 511.265625 3126.726562 511.734375 C 3123.234375 512.414062 3119.636719 513.089844 3115.988281 513.769531 C 3113.953125 514.1875 3111.972656 514.550781 3109.9375 514.96875 C 3104.152344 516.011719 3098.257812 517.105469 3092.160156 518.148438 C 2965.25 540.25 2799.394531 553.023438 2621.804688 554.535156 C 2609.96875 554.640625 2598.082031 554.691406 2586.140625 554.691406 C 2574.199219 554.691406 2562.3125 554.640625 2550.476562 554.535156 C 2372.914062 553.023438 2207.039062 540.25 2080.15625 518.148438 C 2074.066406 517.105469 2068.160156 516.011719 2062.394531 514.96875 C 2060.339844 514.550781 2058.382812 514.1875 2056.34375 513.820312 C 2052.722656 513.089844 2049.078125 512.414062 2045.574219 511.734375 C 2043.269531 511.265625 2041.089844 510.796875 2038.832031 510.328125 C 2035.734375 509.703125 2032.636719 509.023438 2029.625 508.398438 C 2027.34375 507.929688 2025.164062 507.460938 2022.945312 506.941406 C 2020.132812 506.367188 2017.324219 505.6875 2014.613281 505.117188 C 2012.390625 504.59375 2010.234375 504.074219 2008.074219 503.550781 C 2005.507812 502.976562 2002.964844 502.351562 2000.476562 501.777344 C 1998.339844 501.207031 1996.242188 500.683594 1994.164062 500.214844 C 1991.800781 499.589844 1989.460938 499.015625 1987.179688 498.390625 C 1985.144531 497.867188 1983.144531 497.296875 1981.167969 496.773438 C 1978.96875 496.199219 1976.8125 495.574219 1974.671875 495 C 1972.78125 494.429688 1970.886719 493.90625 1969.03125 493.386719 C 1966.976562 492.761719 1964.960938 492.1875 1962.984375 491.5625 C 1961.191406 491.039062 1959.394531 490.464844 1957.664062 489.945312 C 1955.75 489.320312 1953.902344 488.746094 1952.042969 488.121094 C 1950.375 487.597656 1948.707031 487.027344 1947.097656 486.503906 C 1945.261719 485.878906 1943.53125 485.253906 1941.785156 484.679688 C 1940.269531 484.105469 1938.726562 483.585938 1937.257812 483.0625 C 1935.503906 482.4375 1933.835938 481.761719 1932.148438 481.136719 C 1930.824219 480.613281 1929.4375 480.09375 1928.152344 479.625 C 1926.402344 478.894531 1924.734375 478.214844 1923.066406 477.539062 C 1921.945312 477.070312 1920.78125 476.601562 1919.703125 476.128906 C 1917.542969 475.246094 1915.503906 474.304688 1913.472656 473.367188 C 1912.757812 473.054688 1912.007812 472.742188 1911.3125 472.378906 C 1909.070312 471.335938 1906.910156 470.34375 1904.855469 469.300781 C 1904.019531 468.882812 1903.265625 468.46875 1902.472656 468.050781 C 1901.207031 467.371094 1899.925781 466.746094 1898.722656 466.070312 C 1927.277344 820.246094 2224.699219 1099.722656 2586.136719 1099.722656 C 2947.625 1099.722656 3245.03125 820.246094 3273.605469 466.070312 Z M 2775.304688 1116.5625 C 2714.976562 1132.722656 2651.574219 1141.425781 2586.140625 1141.425781 C 2520.757812 1141.425781 2457.355469 1132.722656 2396.976562 1116.5625 L 2396.976562 1169.371094 L 2775.304688 1169.371094 Z M 1896.484375 410.183594 C 1896.484375 415.605469 1915.363281 435.574219 1994.40625 457 C 2002.636719 432.914062 2019.503906 397.671875 2051.578125 378.175781 C 2075.148438 363.839844 2102.253906 360.503906 2132.191406 368.375 C 2169.300781 378.175781 2194.664062 393.605469 2215.027344 406.066406 C 2250.363281 427.648438 2269.832031 439.480469 2328.167969 415.449219 C 2344.234375 408.828125 2360.914062 401.269531 2378.570312 393.242188 C 2475.707031 349.191406 2596.515625 294.394531 2681.296875 381.617188 C 2707.625 408.621094 2738.960938 435.574219 2772.070312 452.828125 C 2773.6875 451.734375 2775.304688 450.585938 2776.867188 449.492188 C 2789.226562 433.488281 2801.632812 417.535156 2813.992188 401.582031 C 2835.472656 373.796875 2857.007812 346.0625 2878.488281 318.328125 C 2787.921875 311.136719 2688.75 307.328125 2586.140625 307.328125 C 2397.550781 307.328125 2220.363281 320.101562 2087.304688 343.25 C 1928.867188 370.824219 1896.484375 403.042969 1896.484375 410.183594 Z M 2438.84375 494.167969 C 2428.519531 499.902344 2418.300781 504.855469 2408.289062 509.023438 C 2465.644531 511.632812 2525.292969 512.988281 2586.140625 512.988281 C 2615.285156 512.988281 2644.121094 512.621094 2672.640625 512.050781 C 2629.886719 476.496094 2547.921875 433.589844 2438.84375 494.167969 Z M 2797.464844 507.410156 C 2791.207031 505.6875 2784.898438 503.550781 2778.484375 501.152344 C 2776.242188 500.738281 2774.050781 499.902344 2772.019531 498.652344 C 2733.226562 482.4375 2692.609375 453.035156 2651.417969 410.652344 C 2587.078125 344.5 2489.835938 388.601562 2395.828125 431.246094 C 2377.789062 439.429688 2360.796875 447.144531 2344.074219 454.027344 C 2266.167969 486.140625 2230.769531 464.558594 2193.296875 441.671875 C 2173.375 429.523438 2152.785156 416.960938 2121.582031 408.726562 C 2102.78125 403.773438 2086.976562 405.441406 2073.269531 413.78125 C 2053.515625 425.824219 2041.621094 449.648438 2035.222656 466.902344 C 2043.574219 468.726562 2052.394531 470.550781 2061.703125 472.378906 C 2064.269531 468.207031 2067.566406 464.246094 2071.945312 460.75 C 2090.824219 445.789062 2120.363281 444.644531 2162.234375 457.257812 C 2168.691406 459.238281 2175.125 461.222656 2181.566406 463.203125 C 2256.59375 486.402344 2327.472656 508.296875 2418.613281 457.675781 C 2556.316406 381.199219 2658.5625 443.132812 2707.261719 486.871094 C 2716.542969 495.160156 2728.011719 502.925781 2741.203125 509.964844 C 2760.183594 509.234375 2779.003906 508.398438 2797.464844 507.410156 Z M 3179.859375 456.476562 C 3171.046875 446.886719 3158.53125 439.742188 3142.527344 435.207031 C 3078.707031 417.066406 2976.617188 444.695312 2931.410156 480.507812 C 2921.242188 488.589844 2910.660156 495.160156 2899.710938 500.214844 C 2930.785156 497.554688 2960.714844 494.480469 2989.390625 490.988281 C 3026.722656 458.925781 3085.015625 412.738281 3138.511719 466.589844 C 3153.890625 463.203125 3167.605469 459.8125 3179.859375 456.476562 Z M 2927.605469 322.605469 C 2915.769531 337.878906 2903.933594 353.152344 2892.097656 368.375 C 2912.589844 353.988281 2933.027344 339.597656 2953.464844 325.210938 C 2944.96875 324.324219 2936.3125 323.4375 2927.605469 322.605469 Z M 3320.011719 118.207031 C 3298.269531 133.503906 3276.527344 148.792969 3254.835938 164.089844 C 3191.539062 208.625 3128.238281 253.140625 3064.992188 297.675781 C 3074.222656 299.121094 3083.296875 300.605469 3092.160156 302.152344 C 3294.203125 337.304688 3317.558594 380.625 3317.558594 410.183594 C 3317.558594 732.773438 3107.539062 1007.191406 2817.015625 1104.050781 L 2817.015625 1211.074219 L 2355.273438 1211.074219 L 2355.273438 1104.050781 C 2064.777344 1007.191406 1854.773438 732.773438 1854.773438 410.183594 C 1854.773438 380.625 1878.132812 337.304688 2080.15625 302.152344 C 2215.519531 278.59375 2395.203125 265.625 2586.140625 265.625 C 2700.171875 265.625 2810.027344 270.285156 2908.9375 279.023438 C 2993.195312 170.277344 3077.457031 61.535156 3161.714844 -47.203125 C 3178.191406 -68.425781 3207.542969 -38.675781 3191.226562 -17.675781 C 3174.957031 3.316406 3158.691406 24.332031 3142.421875 45.351562 L 2957.691406 283.726562 C 2973.75 285.433594 2989.390625 287.269531 3004.667969 289.183594 C 3102.796875 220.191406 3200.820312 151.175781 3298.945312 82.164062 C 3321 66.652344 3341.804688 102.878906 3320.011719 118.207031 Z M 2741.882812 1052.972656 C 2783.960938 1041.191406 2824.523438 1025.550781 2863.734375 1006.3125 C 2887.875 994.53125 2866.707031 958.511719 2842.617188 970.292969 C 2806.585938 987.910156 2769.410156 1001.882812 2730.828125 1012.726562 C 2704.96875 1019.972656 2715.917969 1060.269531 2741.882812 1052.972656 Z M 2966.554688 942.453125 C 2945.226562 958.824219 2924.476562 922.539062 2945.488281 906.378906 C 3041.792969 832.25 3114.839844 731.324219 3155.507812 616.894531 C 3164.476562 591.714844 3204.832031 602.609375 3195.8125 628 C 3151.128906 753.636719 3072.136719 861.179688 2966.554688 942.453125"/></g><g fill="#5CE1E6"><g><g><path d="M 121.75 -27.988281 L 51.980469 -27.988281 L 51.980469 -55.175781 L 115.753906 -55.175781 L 115.753906 -83.164062 L 51.980469 -83.164062 L 51.980469 -109.953125 L 119.75 -109.953125 L 119.75 -137.941406 L 15.992188 -137.941406 L 15.992188 0 L 121.75 0 Z M 121.75 -27.988281" transform="translate(1760.559 1405.275)"/></g></g></g><g fill="#5CE1E6"><g><g><path d="M 54.777344 -109.554688 C 26.390625 -109.554688 7.996094 -96.359375 7.996094 -75.167969 C 7.996094 -56.976562 20.191406 -47.582031 40.582031 -42.78125 C 59.574219 -38.382812 66.371094 -34.585938 66.371094 -27.789062 C 66.371094 -22.191406 61.375 -19.59375 54.976562 -19.59375 C 47.378906 -19.59375 40.984375 -24.988281 38.984375 -33.1875 L 3.597656 -33.1875 C 6.398438 -9.195312 26.1875 2.800781 55.175781 2.800781 C 80.964844 2.800781 102.359375 -7.796875 102.359375 -30.585938 C 102.359375 -51.179688 88.5625 -59.574219 69.171875 -64.375 C 48.78125 -69.371094 43.980469 -73.371094 43.980469 -79.367188 C 43.980469 -83.964844 47.582031 -87.164062 52.578125 -87.164062 C 58.976562 -87.164062 62.574219 -82.964844 64.171875 -75.570312 L 99.558594 -75.570312 C 96.761719 -94.960938 81.367188 -109.554688 54.777344 -109.554688 Z M 54.777344 -109.554688" transform="translate(1888.306 1405.275)"/></g></g></g><g fill="#5CE1E6"><g><g><path d="M 122.949219 -106.757812 L 86.964844 -106.757812 L 86.964844 -92.960938 L 79.96875 -104.355469 C 74.570312 -107.554688 64.171875 -109.554688 55.378906 -109.554688 C 27.988281 -109.554688 4.796875 -88.964844 4.796875 -50.980469 C 4.796875 -19.390625 22.789062 2.800781 51.777344 2.800781 C 62.574219 2.800781 72.96875 0.601562 78.96875 -3.796875 L 86.964844 -15.59375 L 86.964844 39.183594 L 122.949219 39.183594 Z M 64.171875 -21.589844 C 51.578125 -21.589844 41.582031 -32.785156 41.582031 -52.777344 C 41.582031 -74.570312 51.179688 -85.164062 65.171875 -85.164062 C 75.96875 -85.164062 86.964844 -77.96875 86.964844 -56.578125 L 86.964844 -51.980469 C 86.964844 -29.585938 77.367188 -21.589844 64.171875 -21.589844 Z M 64.171875 -21.589844" transform="translate(1993.862 1405.275)"/></g></g></g><g fill="#5CE1E6"><g><g><path d="M 117.152344 -106.757812 L 81.167969 -106.757812 L 81.167969 -46.382812 C 81.167969 -32.1875 74.371094 -21.589844 62.972656 -21.589844 C 51.578125 -21.589844 46.78125 -27.589844 45.582031 -37.785156 C 44.980469 -43.183594 44.78125 -48.980469 44.78125 -52.378906 L 44.78125 -106.757812 L 8.796875 -106.757812 L 8.796875 -44.382812 C 8.796875 -35.785156 8.996094 -29.585938 9.796875 -24.191406 C 12.195312 -9.597656 25.589844 2.800781 47.582031 2.800781 C 57.375 2.800781 64.972656 0.601562 71.570312 -3.398438 L 81.167969 -17.992188 L 81.167969 0 L 117.152344 0 Z M 117.152344 -106.757812" transform="translate(2127.607 1405.275)"/></g></g></g><g fill="#5CE1E6"><g><g><path d="M 28.789062 -150.136719 C 17.59375 -150.136719 10.195312 -143.339844 10.195312 -132.546875 C 10.195312 -121.75 17.59375 -114.953125 28.789062 -114.953125 C 39.984375 -114.953125 47.378906 -121.75 47.378906 -132.546875 C 47.378906 -143.339844 39.984375 -150.136719 28.789062 -150.136719 Z M 46.78125 0 L 46.78125 -106.757812 L 10.796875 -106.757812 L 10.796875 0 Z M 46.78125 0" transform="translate(2255.554 1405.275)"/></g></g></g><g fill="#5CE1E6"><g><g><path d="M 118.152344 -80.566406 C 115.351562 -99.160156 102.359375 -109.554688 80.367188 -109.554688 C 70.570312 -109.554688 62.972656 -107.355469 56.375 -103.359375 L 46.78125 -90.164062 L 46.78125 -106.757812 L 10.796875 -106.757812 L 10.796875 0 L 46.78125 0 L 46.78125 -50.378906 C 46.78125 -74.570312 54.578125 -85.164062 65.574219 -85.164062 C 76.367188 -85.164062 81.964844 -79.167969 82.765625 -68.972656 C 83.164062 -63.574219 83.164062 -57.777344 83.164062 -54.378906 L 83.164062 0 L 119.152344 0 L 119.152344 -60.375 C 119.152344 -68.972656 118.949219 -75.167969 118.152344 -80.566406 Z M 118.152344 -80.566406" transform="translate(2313.13 1405.275)"/></g></g></g><g fill="#5CE1E6"><g><g><path d="M 73.371094 0 L 108.554688 0 C 106.957031 -11.796875 106.554688 -18.992188 106.554688 -26.988281 L 106.554688 -56.976562 C 106.554688 -63.574219 106.355469 -69.769531 105.957031 -75.167969 C 104.355469 -94.5625 92.761719 -109.554688 58.976562 -109.554688 C 31.988281 -109.554688 9.796875 -95.359375 9.597656 -70.371094 L 43.582031 -70.570312 C 44.183594 -79.765625 48.980469 -85.164062 57.375 -85.164062 C 65.171875 -85.164062 69.570312 -80.367188 70.171875 -74.96875 C 70.570312 -71.570312 70.570312 -69.371094 70.570312 -67.171875 L 70.570312 -65.574219 L 63.773438 -65.574219 C 27.589844 -65.574219 5.996094 -51.578125 5.996094 -28.789062 C 5.996094 -8.195312 22.589844 2.800781 40.183594 2.800781 C 49.980469 2.800781 58.976562 0.398438 66.574219 -4.398438 L 70.972656 -15.59375 Z M 54.976562 -21.589844 C 47.78125 -21.589844 42.78125 -25.191406 42.78125 -31.585938 C 42.78125 -42.183594 54.378906 -46.382812 70.570312 -45.179688 L 70.570312 -38.183594 C 70.570312 -26.988281 62.175781 -21.589844 54.976562 -21.589844 Z M 54.976562 -21.589844" transform="translate(2441.878 1405.275)"/></g></g></g><g fill="#5CE1E6"><g><g><path d="M 121.75 -30.386719 L 51.980469 -30.386719 L 51.980469 -137.941406 L 15.992188 -137.941406 L 15.992188 0 L 121.75 0 Z M 121.75 -30.386719" transform="translate(2594.415 1405.275)"/></g></g></g><g fill="#5CE1E6"><g><g><path d="M 73.371094 0 L 108.554688 0 C 106.957031 -11.796875 106.554688 -18.992188 106.554688 -26.988281 L 106.554688 -56.976562 C 106.554688 -63.574219 106.355469 -69.769531 105.957031 -75.167969 C 104.355469 -94.5625 92.761719 -109.554688 58.976562 -109.554688 C 31.988281 -109.554688 9.796875 -95.359375 9.597656 -70.371094 L 43.582031 -70.570312 C 44.183594 -79.765625 48.980469 -85.164062 57.375 -85.164062 C 65.171875 -85.164062 69.570312 -80.367188 70.171875 -74.96875 C 70.570312 -71.570312 70.570312 -69.371094 70.570312 -67.171875 L 70.570312 -65.574219 L 63.773438 -65.574219 C 27.589844 -65.574219 5.996094 -51.578125 5.996094 -28.789062 C 5.996094 -8.195312 22.589844 2.800781 40.183594 2.800781 C 49.980469 2.800781 58.976562 0.398438 66.574219 -4.398438 L 70.972656 -15.59375 Z M 54.976562 -21.589844 C 47.78125 -21.589844 42.78125 -25.191406 42.78125 -31.585938 C 42.78125 -42.183594 54.378906 -46.382812 70.570312 -45.179688 L 70.570312 -38.183594 C 70.570312 -26.988281 62.175781 -21.589844 54.976562 -21.589844 Z M 54.976562 -21.589844" transform="translate(2719.963 1405.275)"/></g></g></g><g fill="#5CE1E6"><g><g><path d="M 118.152344 -80.566406 C 115.351562 -99.160156 102.359375 -109.554688 80.367188 -109.554688 C 70.570312 -109.554688 62.972656 -107.355469 56.375 -103.359375 L 46.78125 -90.164062 L 46.78125 -106.757812 L 10.796875 -106.757812 L 10.796875 0 L 46.78125 0 L 46.78125 -50.378906 C 46.78125 -74.570312 54.578125 -85.164062 65.574219 -85.164062 C 76.367188 -85.164062 81.964844 -79.167969 82.765625 -68.972656 C 83.164062 -63.574219 83.164062 -57.777344 83.164062 -54.378906 L 83.164062 0 L 119.152344 0 L 119.152344 -60.375 C 119.152344 -68.972656 118.949219 -75.167969 118.152344 -80.566406 Z M 118.152344 -80.566406" transform="translate(2837.314 1405.275)"/></g></g></g><g fill="#5CE1E6"><g><g><path d="M 60.976562 -109.554688 C 29.585938 -109.554688 4.796875 -88.964844 4.796875 -52.179688 C 4.796875 -16.992188 27.988281 2.800781 58.574219 2.800781 C 87.5625 2.800781 108.957031 -11.59375 112.953125 -39.183594 L 77.566406 -39.183594 C 75.570312 -27.589844 68.773438 -21.589844 60.574219 -21.589844 C 48.378906 -21.589844 41.582031 -31.585938 41.582031 -54.378906 C 41.582031 -74.96875 48.179688 -85.164062 60.175781 -85.164062 C 69.171875 -85.164062 76.167969 -79.96875 77.769531 -65.972656 L 112.554688 -65.972656 C 111.554688 -89.964844 92.363281 -109.554688 60.976562 -109.554688 Z M 60.976562 -109.554688" transform="translate(2966.061 1405.275)"/></g></g></g><g fill="#5CE1E6"><g><g><path d="M 118.152344 -80.566406 C 115.351562 -99.160156 102.359375 -109.554688 80.367188 -109.554688 C 70.570312 -109.554688 62.972656 -107.355469 56.375 -103.359375 L 46.78125 -90.164062 L 46.78125 -147.9375 L 10.796875 -147.9375 L 10.796875 0 L 46.78125 0 L 46.78125 -50.378906 C 46.78125 -74.570312 54.578125 -85.164062 65.574219 -85.164062 C 76.367188 -85.164062 81.964844 -79.167969 82.765625 -68.972656 C 83.164062 -63.574219 83.164062 -57.777344 83.164062 -54.378906 L 83.164062 0 L 119.152344 0 L 119.152344 -60.375 C 119.152344 -68.972656 118.949219 -75.167969 118.152344 -80.566406 Z M 118.152344 -80.566406" transform="translate(3083.413 1405.275)"/></g></g></g><g fill="#5CE1E6"><g><g><path d="M 115.351562 -54.777344 C 115.351562 -82.367188 97.359375 -109.554688 61.773438 -109.554688 C 26.1875 -109.554688 4.796875 -84.164062 4.796875 -52.976562 C 4.796875 -15.394531 29.1875 2.800781 59.777344 2.800781 C 87.164062 2.800781 107.15625 -10.796875 113.351562 -34.984375 L 77.96875 -34.984375 C 76.570312 -26.789062 70.371094 -21.589844 60.175781 -21.589844 C 49.980469 -21.589844 42.183594 -26.589844 40.382812 -44.382812 L 114.753906 -44.382812 C 115.152344 -47.980469 115.351562 -51.578125 115.351562 -54.777344 Z M 59.976562 -85.164062 C 69.570312 -85.164062 75.769531 -78.96875 77.769531 -66.371094 L 41.582031 -66.371094 C 43.980469 -79.566406 50.578125 -85.164062 59.976562 -85.164062 Z M 59.976562 -85.164062" transform="translate(3212.16 1405.275)"/></g></g></g><g fill="#5CE1E6"><g><g><path d="M 54.777344 -109.554688 C 26.390625 -109.554688 7.996094 -96.359375 7.996094 -75.167969 C 7.996094 -56.976562 20.191406 -47.582031 40.582031 -42.78125 C 59.574219 -38.382812 66.371094 -34.585938 66.371094 -27.789062 C 66.371094 -22.191406 61.375 -19.59375 54.976562 -19.59375 C 47.378906 -19.59375 40.984375 -24.988281 38.984375 -33.1875 L 3.597656 -33.1875 C 6.398438 -9.195312 26.1875 2.800781 55.175781 2.800781 C 80.964844 2.800781 102.359375 -7.796875 102.359375 -30.585938 C 102.359375 -51.179688 88.5625 -59.574219 69.171875 -64.375 C 48.78125 -69.371094 43.980469 -73.371094 43.980469 -79.367188 C 43.980469 -83.964844 47.582031 -87.164062 52.578125 -87.164062 C 58.976562 -87.164062 62.574219 -82.964844 64.171875 -75.570312 L 99.558594 -75.570312 C 96.761719 -94.960938 81.367188 -109.554688 54.777344 -109.554688 Z M 54.777344 -109.554688" transform="translate(3332.31 1405.275)"/></g></g></g><g fill="#FFF"><g><g><path d="M 81.265625 -52.96875 L 54.96875 0 L 44.78125 0 L 40.875 -44.375 L 21.296875 0 L 11 0 L 3.5 -52.96875 L 13.390625 -52.96875 L 17.796875 -9 L 36.875 -52.96875 L 47.78125 -52.96875 L 51.78125 -8.890625 L 71.859375 -52.96875 Z M 81.265625 -52.96875" transform="translate(1992.867 2368.636)"/></g></g></g><g fill="#FFF"><g><g><path d="M 81.265625 -52.96875 L 54.96875 0 L 44.78125 0 L 40.875 -44.375 L 21.296875 0 L 11 0 L 3.5 -52.96875 L 13.390625 -52.96875 L 17.796875 -9 L 36.875 -52.96875 L 47.78125 -52.96875 L 51.78125 -8.890625 L 71.859375 -52.96875 Z M 81.265625 -52.96875" transform="translate(2070.834 2368.636)"/></g></g></g><g fill="#FFF"><g><g><path d="M 81.265625 -52.96875 L 54.96875 0 L 44.78125 0 L 40.875 -44.375 L 21.296875 0 L 11 0 L 3.5 -52.96875 L 13.390625 -52.96875 L 17.796875 -9 L 36.875 -52.96875 L 47.78125 -52.96875 L 51.78125 -8.890625 L 71.859375 -52.96875 Z M 81.265625 -52.96875" transform="translate(2148.8 2368.636)"/></g></g></g><g fill="#FFF"><g><g><path d="M 7.5 -11.390625 C 9.09375 -11.390625 10.375 -10.890625 11.34375 -9.890625 C 12.3125 -8.890625 12.796875 -7.625 12.796875 -6.09375 C 12.796875 -3.96875 12.0625 -2.1875 10.59375 -0.75 C 9.125 0.6875 7.359375 1.40625 5.296875 1.40625 C 3.703125 1.40625 2.421875 0.90625 1.453125 -0.09375 C 0.484375 -1.09375 0 -2.359375 0 -3.890625 C 0 -6.023438 0.726562 -7.804688 2.1875 -9.234375 C 3.65625 -10.671875 5.425781 -11.390625 7.5 -11.390625 Z M 7.5 -11.390625" transform="translate(2226.768 2368.636)"/></g></g></g><g fill="#FFF"><g><g><path d="M 50.375 -23.890625 L 12.09375 -23.890625 C 11.957031 -22.023438 11.890625 -20.625 11.890625 -19.6875 C 11.890625 -14.820312 12.972656 -11.191406 15.140625 -8.796875 C 17.304688 -6.398438 20.222656 -5.203125 23.890625 -5.203125 C 27.421875 -5.203125 30.632812 -6.25 33.53125 -8.34375 C 36.425781 -10.445312 38.476562 -13.363281 39.6875 -17.09375 L 48.671875 -17.09375 C 46.609375 -11.03125 43.160156 -6.429688 38.328125 -3.296875 C 33.492188 -0.160156 28.179688 1.40625 22.390625 1.40625 C 16.328125 1.40625 11.492188 -0.410156 7.890625 -4.046875 C 4.296875 -7.679688 2.5 -12.796875 2.5 -19.390625 C 2.5 -23.453125 3.0625 -27.445312 4.1875 -31.375 C 5.320312 -35.3125 7.003906 -39.046875 9.234375 -42.578125 C 11.472656 -46.109375 14.554688 -48.957031 18.484375 -51.125 C 22.421875 -53.289062 26.921875 -54.375 31.984375 -54.375 C 38.117188 -54.375 42.984375 -52.585938 46.578125 -49.015625 C 50.171875 -45.453125 51.96875 -40.675781 51.96875 -34.6875 C 51.96875 -30.882812 51.4375 -27.285156 50.375 -23.890625 Z M 30.6875 -47.78125 C 25.882812 -47.78125 22.050781 -46.160156 19.1875 -42.921875 C 16.320312 -39.691406 14.289062 -35.546875 13.09375 -30.484375 L 43.078125 -30.484375 C 43.210938 -32.210938 43.28125 -33.445312 43.28125 -34.1875 C 43.28125 -38.519531 42.144531 -41.867188 39.875 -44.234375 C 37.613281 -46.597656 34.550781 -47.78125 30.6875 -47.78125 Z M 30.6875 -47.78125" transform="translate(2252.057 2368.636)"/></g></g></g><g fill="#FFF"><g><g><path d="M 25.28125 -54.375 C 31.21875 -54.375 35.617188 -52.90625 38.484375 -49.96875 C 41.347656 -47.039062 42.847656 -43.007812 42.984375 -37.875 L 33.984375 -37.875 C 33.648438 -44.476562 30.617188 -47.78125 24.890625 -47.78125 C 21.421875 -47.78125 18.835938 -46.960938 17.140625 -45.328125 C 15.441406 -43.691406 14.59375 -41.675781 14.59375 -39.28125 C 14.59375 -36.945312 15.40625 -35.097656 17.03125 -33.734375 C 18.664062 -32.367188 21.050781 -31.21875 24.1875 -30.28125 C 29.582031 -28.6875 33.546875 -26.671875 36.078125 -24.234375 C 38.609375 -21.804688 39.875 -18.492188 39.875 -14.296875 C 39.875 -9.566406 38.023438 -5.664062 34.328125 -2.59375 C 30.628906 0.46875 25.582031 2 19.1875 2 C 12.394531 2 7.398438 0.351562 4.203125 -2.9375 C 1.003906 -6.238281 -0.726562 -10.257812 -1 -15 L 8 -15 C 8.59375 -8.0625 12.554688 -4.59375 19.890625 -4.59375 C 22.953125 -4.59375 25.484375 -5.410156 27.484375 -7.046875 C 29.484375 -8.679688 30.484375 -10.863281 30.484375 -13.59375 C 30.484375 -15.925781 29.664062 -17.84375 28.03125 -19.34375 C 26.40625 -20.84375 23.691406 -22.160156 19.890625 -23.296875 C 15.085938 -24.753906 11.4375 -26.582031 8.9375 -28.78125 C 6.445312 -30.976562 5.203125 -34.175781 5.203125 -38.375 C 5.203125 -42.976562 6.945312 -46.796875 10.4375 -49.828125 C 13.9375 -52.859375 18.882812 -54.375 25.28125 -54.375 Z M 25.28125 -54.375" transform="translate(2307.934 2368.636)"/></g></g></g><g fill="#FFF"><g><g><path d="M 58.578125 -52.96875 L 45.671875 19.59375 L 37.078125 19.59375 L 42.078125 -8.390625 L 37.078125 -2.796875 C 33.285156 0.00390625 28.390625 1.40625 22.390625 1.40625 C 16.054688 1.40625 11.171875 -0.609375 7.734375 -4.640625 C 4.304688 -8.671875 2.59375 -13.851562 2.59375 -20.1875 C 2.59375 -23.519531 2.992188 -26.800781 3.796875 -30.03125 C 4.597656 -33.269531 5.847656 -36.351562 7.546875 -39.28125 C 9.242188 -42.207031 11.289062 -44.785156 13.6875 -47.015625 C 16.09375 -49.253906 19.039062 -51.039062 22.53125 -52.375 C 26.03125 -53.707031 29.847656 -54.375 33.984375 -54.375 C 36.242188 -54.375 38.539062 -53.957031 40.875 -53.125 C 43.207031 -52.289062 44.941406 -51.242188 46.078125 -49.984375 L 48.484375 -44.78125 L 49.984375 -52.96875 Z M 45.171875 -25.984375 L 45.671875 -28.890625 C 46.609375 -34.148438 45.976562 -38.613281 43.78125 -42.28125 C 41.582031 -45.945312 37.914062 -47.78125 32.78125 -47.78125 C 26.457031 -47.78125 21.410156 -45.0625 17.640625 -39.625 C 13.878906 -34.195312 12 -27.851562 12 -20.59375 C 12 -15.925781 13.078125 -12.191406 15.234375 -9.390625 C 17.398438 -6.597656 20.582031 -5.203125 24.78125 -5.203125 C 29.644531 -5.203125 33.941406 -6.882812 37.671875 -10.25 C 41.410156 -13.613281 43.910156 -18.859375 45.171875 -25.984375 Z M 45.171875 -25.984375" transform="translate(2355.014 2368.636)"/></g></g></g><g fill="#FFF"><g><g><path d="M 56.28125 -52.96875 L 46.984375 0 L 38.375 0 L 39.984375 -9.09375 L 35.578125 -3 C 31.316406 -0.0625 26.453125 1.40625 20.984375 1.40625 C 15.722656 1.40625 11.707031 0.207031 8.9375 -2.1875 C 6.175781 -4.59375 4.796875 -7.925781 4.796875 -12.1875 C 4.796875 -14.925781 5.226562 -18.59375 6.09375 -23.1875 L 11.5 -52.96875 L 20.09375 -52.96875 L 14.796875 -23.78125 C 14.054688 -19.65625 13.6875 -16.59375 13.6875 -14.59375 C 13.6875 -8.257812 17.117188 -5.191406 23.984375 -5.390625 C 34.242188 -5.660156 40.773438 -13.757812 43.578125 -29.6875 L 47.671875 -52.96875 Z M 56.28125 -52.96875" transform="translate(2418.187 2368.636)"/></g></g></g><g fill="#FFF"><g><g><path d="M 19.59375 -70.359375 C 20.988281 -70.359375 22.117188 -69.925781 22.984375 -69.0625 C 23.847656 -68.195312 24.28125 -67.097656 24.28125 -65.765625 C 24.28125 -63.972656 23.644531 -62.457031 22.375 -61.21875 C 21.113281 -59.988281 19.585938 -59.375 17.796875 -59.375 C 16.390625 -59.375 15.253906 -59.804688 14.390625 -60.671875 C 13.523438 -61.535156 13.09375 -62.632812 13.09375 -63.96875 C 13.09375 -65.769531 13.722656 -67.285156 14.984375 -68.515625 C 16.253906 -69.742188 17.789062 -70.359375 19.59375 -70.359375 Z M 11.390625 0 L 2.796875 0 L 12.1875 -52.96875 L 20.796875 -52.96875 Z M 11.390625 0" transform="translate(2479.161 2368.636)"/></g></g></g><g fill="#FFF"><g><g><path d="M 38.078125 -54.375 C 43.347656 -54.375 47.363281 -53.171875 50.125 -50.765625 C 52.894531 -48.367188 54.28125 -45.039062 54.28125 -40.78125 C 54.28125 -38.050781 53.84375 -34.382812 52.96875 -29.78125 L 47.578125 0 L 38.984375 0 L 44.28125 -29.1875 C 45.007812 -33.320312 45.375 -36.382812 45.375 -38.375 C 45.375 -44.707031 41.941406 -47.773438 35.078125 -47.578125 C 24.816406 -47.304688 18.289062 -39.210938 15.5 -23.296875 L 11.390625 0 L 2.796875 0 L 12.09375 -52.96875 L 20.6875 -52.96875 L 19.09375 -43.875 L 23.484375 -49.984375 C 27.753906 -52.910156 32.617188 -54.375 38.078125 -54.375 Z M 38.078125 -54.375" transform="translate(2504.55 2368.636)"/></g></g></g><g fill="#FFF"><g><g><path d="M 30.390625 -54.375 C 36.117188 -54.375 40.378906 -53.207031 43.171875 -50.875 C 45.972656 -48.539062 47.375 -45.34375 47.375 -41.28125 C 47.375 -39.476562 47.078125 -36.847656 46.484375 -33.390625 L 42.984375 -13.5 C 42.316406 -9.695312 41.847656 -5.195312 41.578125 0 L 32.984375 0 L 33.390625 -7.59375 L 29.59375 -2.796875 C 26.71875 0.00390625 22.082031 1.40625 15.6875 1.40625 C 11.695312 1.40625 8.285156 0.222656 5.453125 -2.140625 C 2.617188 -4.515625 1.203125 -7.898438 1.203125 -12.296875 C 1.203125 -19.628906 4.566406 -24.941406 11.296875 -28.234375 C 18.023438 -31.535156 26.820312 -32.753906 37.6875 -31.890625 L 37.875 -33.28125 C 38.476562 -36.613281 38.78125 -38.976562 38.78125 -40.375 C 38.78125 -42.570312 38.097656 -44.351562 36.734375 -45.71875 C 35.367188 -47.09375 33.21875 -47.78125 30.28125 -47.78125 C 25.945312 -47.78125 22.679688 -46.863281 20.484375 -45.03125 C 18.285156 -43.195312 16.753906 -40.378906 15.890625 -36.578125 L 6.890625 -36.578125 C 8.023438 -42.179688 10.675781 -46.546875 14.84375 -49.671875 C 19.007812 -52.804688 24.191406 -54.375 30.390625 -54.375 Z M 19.6875 -5.203125 C 23.15625 -5.203125 26.472656 -6.632812 29.640625 -9.5 C 32.804688 -12.363281 34.785156 -15.894531 35.578125 -20.09375 L 36.578125 -25.59375 C 29.253906 -26.382812 23.09375 -25.726562 18.09375 -23.625 C 13.09375 -21.53125 10.59375 -18.050781 10.59375 -13.1875 C 10.59375 -10.65625 11.425781 -8.691406 13.09375 -7.296875 C 14.757812 -5.898438 16.957031 -5.203125 19.6875 -5.203125 Z M 19.6875 -5.203125" transform="translate(2566.024 2368.636)"/></g></g></g><g fill="#FFF"><g><g><path d="M 23.890625 -73.46875 L 13.59375 -15.1875 C 13.125 -12.65625 12.890625 -10.925781 12.890625 -10 C 12.890625 -8.332031 13.320312 -7.25 14.1875 -6.75 C 15.0625 -6.25 16.5625 -6.097656 18.6875 -6.296875 L 17.59375 0 C 15.789062 0.269531 13.722656 0.40625 11.390625 0.40625 C 8.929688 0.40625 7.035156 -0.0625 5.703125 -1 C 4.367188 -1.9375 3.703125 -3.632812 3.703125 -6.09375 C 3.703125 -7.289062 4.132812 -10.222656 5 -14.890625 L 15.296875 -73.46875 Z M 23.890625 -73.46875" transform="translate(2618.602 2368.636)"/></g></g></g><g fill="#FFF"><g><g><path d="M 30.390625 -54.375 C 36.117188 -54.375 40.378906 -53.207031 43.171875 -50.875 C 45.972656 -48.539062 47.375 -45.34375 47.375 -41.28125 C 47.375 -39.476562 47.078125 -36.847656 46.484375 -33.390625 L 42.984375 -13.5 C 42.316406 -9.695312 41.847656 -5.195312 41.578125 0 L 32.984375 0 L 33.390625 -7.59375 L 29.59375 -2.796875 C 26.71875 0.00390625 22.082031 1.40625 15.6875 1.40625 C 11.695312 1.40625 8.285156 0.222656 5.453125 -2.140625 C 2.617188 -4.515625 1.203125 -7.898438 1.203125 -12.296875 C 1.203125 -19.628906 4.566406 -24.941406 11.296875 -28.234375 C 18.023438 -31.535156 26.820312 -32.753906 37.6875 -31.890625 L 37.875 -33.28125 C 38.476562 -36.613281 38.78125 -38.976562 38.78125 -40.375 C 38.78125 -42.570312 38.097656 -44.351562 36.734375 -45.71875 C 35.367188 -47.09375 33.21875 -47.78125 30.28125 -47.78125 C 25.945312 -47.78125 22.679688 -46.863281 20.484375 -45.03125 C 18.285156 -43.195312 16.753906 -40.378906 15.890625 -36.578125 L 6.890625 -36.578125 C 8.023438 -42.179688 10.675781 -46.546875 14.84375 -49.671875 C 19.007812 -52.804688 24.191406 -54.375 30.390625 -54.375 Z M 19.6875 -5.203125 C 23.15625 -5.203125 26.472656 -6.632812 29.640625 -9.5 C 32.804688 -12.363281 34.785156 -15.894531 35.578125 -20.09375 L 36.578125 -25.59375 C 29.253906 -26.382812 23.09375 -25.726562 18.09375 -23.625 C 13.09375 -21.53125 10.59375 -18.050781 10.59375 -13.1875 C 10.59375 -10.65625 11.425781 -8.691406 13.09375 -7.296875 C 14.757812 -5.898438 16.957031 -5.203125 19.6875 -5.203125 Z M 19.6875 -5.203125" transform="translate(2645.39 2368.636)"/></g></g></g><g fill="#FFF"><g><g><path d="M 38.078125 -54.375 C 43.347656 -54.375 47.363281 -53.171875 50.125 -50.765625 C 52.894531 -48.367188 54.28125 -45.039062 54.28125 -40.78125 C 54.28125 -38.050781 53.84375 -34.382812 52.96875 -29.78125 L 47.578125 0 L 38.984375 0 L 44.28125 -29.1875 C 45.007812 -33.320312 45.375 -36.382812 45.375 -38.375 C 45.375 -44.707031 41.941406 -47.773438 35.078125 -47.578125 C 24.816406 -47.304688 18.289062 -39.210938 15.5 -23.296875 L 11.390625 0 L 2.796875 0 L 12.09375 -52.96875 L 20.6875 -52.96875 L 19.09375 -43.875 L 23.484375 -49.984375 C 27.753906 -52.910156 32.617188 -54.375 38.078125 -54.375 Z M 38.078125 -54.375" transform="translate(2697.969 2368.636)"/></g></g></g><g fill="#FFF"><g><g><path d="M 32.78125 -54.375 C 38.976562 -54.375 43.625 -52.671875 46.71875 -49.265625 C 49.820312 -45.867188 51.40625 -41.175781 51.46875 -35.1875 L 42.484375 -35.1875 C 42.078125 -43.582031 38.3125 -47.78125 31.1875 -47.78125 C 25.65625 -47.78125 21.054688 -45.179688 17.390625 -39.984375 C 13.722656 -34.785156 11.890625 -28.054688 11.890625 -19.796875 C 11.890625 -14.929688 12.957031 -11.28125 15.09375 -8.84375 C 17.226562 -6.414062 20.023438 -5.203125 23.484375 -5.203125 C 31.085938 -5.203125 36.453125 -9.097656 39.578125 -16.890625 L 48.578125 -16.890625 C 45.972656 -10.691406 42.539062 -6.09375 38.28125 -3.09375 C 34.019531 -0.09375 28.65625 1.40625 22.1875 1.40625 C 16.320312 1.40625 11.570312 -0.390625 7.9375 -3.984375 C 4.3125 -7.585938 2.5 -12.753906 2.5 -19.484375 C 2.5 -25.554688 3.613281 -31.1875 5.84375 -36.375 C 8.082031 -41.570312 11.550781 -45.867188 16.25 -49.265625 C 20.945312 -52.671875 26.457031 -54.375 32.78125 -54.375 Z M 32.78125 -54.375" transform="translate(2759.443 2368.636)"/></g></g></g><g fill="#FFF"><g><g><path d="M 38.078125 -54.375 C 43.347656 -54.375 47.363281 -53.171875 50.125 -50.765625 C 52.894531 -48.367188 54.28125 -45.039062 54.28125 -40.78125 C 54.28125 -38.050781 53.84375 -34.382812 52.96875 -29.78125 L 47.578125 0 L 38.984375 0 L 44.28125 -29.1875 C 45.007812 -33.320312 45.375 -36.382812 45.375 -38.375 C 45.375 -44.707031 41.941406 -47.773438 35.078125 -47.578125 C 24.816406 -47.304688 18.289062 -39.210938 15.5 -23.296875 L 11.390625 0 L 2.796875 0 L 15.796875 -73.96875 L 24.390625 -73.96875 L 19.09375 -43.875 L 23.484375 -49.984375 C 27.753906 -52.910156 32.617188 -54.375 38.078125 -54.375 Z M 38.078125 -54.375" transform="translate(2814.52 2368.636)"/></g></g></g><g fill="#FFF"><g><g><path d="M 50.375 -23.890625 L 12.09375 -23.890625 C 11.957031 -22.023438 11.890625 -20.625 11.890625 -19.6875 C 11.890625 -14.820312 12.972656 -11.191406 15.140625 -8.796875 C 17.304688 -6.398438 20.222656 -5.203125 23.890625 -5.203125 C 27.421875 -5.203125 30.632812 -6.25 33.53125 -8.34375 C 36.425781 -10.445312 38.476562 -13.363281 39.6875 -17.09375 L 48.671875 -17.09375 C 46.609375 -11.03125 43.160156 -6.429688 38.328125 -3.296875 C 33.492188 -0.160156 28.179688 1.40625 22.390625 1.40625 C 16.328125 1.40625 11.492188 -0.410156 7.890625 -4.046875 C 4.296875 -7.679688 2.5 -12.796875 2.5 -19.390625 C 2.5 -23.453125 3.0625 -27.445312 4.1875 -31.375 C 5.320312 -35.3125 7.003906 -39.046875 9.234375 -42.578125 C 11.472656 -46.109375 14.554688 -48.957031 18.484375 -51.125 C 22.421875 -53.289062 26.921875 -54.375 31.984375 -54.375 C 38.117188 -54.375 42.984375 -52.585938 46.578125 -49.015625 C 50.171875 -45.453125 51.96875 -40.675781 51.96875 -34.6875 C 51.96875 -30.882812 51.4375 -27.285156 50.375 -23.890625 Z M 30.6875 -47.78125 C 25.882812 -47.78125 22.050781 -46.160156 19.1875 -42.921875 C 16.320312 -39.691406 14.289062 -35.546875 13.09375 -30.484375 L 43.078125 -30.484375 C 43.210938 -32.210938 43.28125 -33.445312 43.28125 -34.1875 C 43.28125 -38.519531 42.144531 -41.867188 39.875 -44.234375 C 37.613281 -46.597656 34.550781 -47.78125 30.6875 -47.78125 Z M 30.6875 -47.78125" transform="translate(2875.993 2368.636)"/></g></g></g><g fill="#FFF"><g><g><path d="M 25.28125 -54.375 C 31.21875 -54.375 35.617188 -52.90625 38.484375 -49.96875 C 41.347656 -47.039062 42.847656 -43.007812 42.984375 -37.875 L 33.984375 -37.875 C 33.648438 -44.476562 30.617188 -47.78125 24.890625 -47.78125 C 21.421875 -47.78125 18.835938 -46.960938 17.140625 -45.328125 C 15.441406 -43.691406 14.59375 -41.675781 14.59375 -39.28125 C 14.59375 -36.945312 15.40625 -35.097656 17.03125 -33.734375 C 18.664062 -32.367188 21.050781 -31.21875 24.1875 -30.28125 C 29.582031 -28.6875 33.546875 -26.671875 36.078125 -24.234375 C 38.609375 -21.804688 39.875 -18.492188 39.875 -14.296875 C 39.875 -9.566406 38.023438 -5.664062 34.328125 -2.59375 C 30.628906 0.46875 25.582031 2 19.1875 2 C 12.394531 2 7.398438 0.351562 4.203125 -2.9375 C 1.003906 -6.238281 -0.726562 -10.257812 -1 -15 L 8 -15 C 8.59375 -8.0625 12.554688 -4.59375 19.890625 -4.59375 C 22.953125 -4.59375 25.484375 -5.410156 27.484375 -7.046875 C 29.484375 -8.679688 30.484375 -10.863281 30.484375 -13.59375 C 30.484375 -15.925781 29.664062 -17.84375 28.03125 -19.34375 C 26.40625 -20.84375 23.691406 -22.160156 19.890625 -23.296875 C 15.085938 -24.753906 11.4375 -26.582031 8.9375 -28.78125 C 6.445312 -30.976562 5.203125 -34.175781 5.203125 -38.375 C 5.203125 -42.976562 6.945312 -46.796875 10.4375 -49.828125 C 13.9375 -52.859375 18.882812 -54.375 25.28125 -54.375 Z M 25.28125 -54.375" transform="translate(2931.87 2368.636)"/></g></g></g><g fill="#FFF"><g><g><path d="M 7.5 -11.390625 C 9.09375 -11.390625 10.375 -10.890625 11.34375 -9.890625 C 12.3125 -8.890625 12.796875 -7.625 12.796875 -6.09375 C 12.796875 -3.96875 12.0625 -2.1875 10.59375 -0.75 C 9.125 0.6875 7.359375 1.40625 5.296875 1.40625 C 3.703125 1.40625 2.421875 0.90625 1.453125 -0.09375 C 0.484375 -1.09375 0 -2.359375 0 -3.890625 C 0 -6.023438 0.726562 -7.804688 2.1875 -9.234375 C 3.65625 -10.671875 5.425781 -11.390625 7.5 -11.390625 Z M 7.5 -11.390625" transform="translate(2978.95 2368.636)"/></g></g></g><g fill="#FFF"><g><g><path d="M 32.78125 -54.375 C 38.976562 -54.375 43.625 -52.671875 46.71875 -49.265625 C 49.820312 -45.867188 51.40625 -41.175781 51.46875 -35.1875 L 42.484375 -35.1875 C 42.078125 -43.582031 38.3125 -47.78125 31.1875 -47.78125 C 25.65625 -47.78125 21.054688 -45.179688 17.390625 -39.984375 C 13.722656 -34.785156 11.890625 -28.054688 11.890625 -19.796875 C 11.890625 -14.929688 12.957031 -11.28125 15.09375 -8.84375 C 17.226562 -6.414062 20.023438 -5.203125 23.484375 -5.203125 C 31.085938 -5.203125 36.453125 -9.097656 39.578125 -16.890625 L 48.578125 -16.890625 C 45.972656 -10.691406 42.539062 -6.09375 38.28125 -3.09375 C 34.019531 -0.09375 28.65625 1.40625 22.1875 1.40625 C 16.320312 1.40625 11.570312 -0.390625 7.9375 -3.984375 C 4.3125 -7.585938 2.5 -12.753906 2.5 -19.484375 C 2.5 -25.554688 3.613281 -31.1875 5.84375 -36.375 C 8.082031 -41.570312 11.550781 -45.867188 16.25 -49.265625 C 20.945312 -52.671875 26.457031 -54.375 32.78125 -54.375 Z M 32.78125 -54.375" transform="translate(3004.24 2368.636)"/></g></g></g><g fill="#FFF"><g><g><path d="M 33.28125 -54.375 C 40.945312 -54.375 46.644531 -52.140625 50.375 -47.671875 C 54.101562 -43.210938 55.96875 -37.648438 55.96875 -30.984375 C 55.96875 -27.253906 55.367188 -23.539062 54.171875 -19.84375 C 52.972656 -16.144531 51.207031 -12.675781 48.875 -9.4375 C 46.539062 -6.207031 43.34375 -3.59375 39.28125 -1.59375 C 35.21875 0.40625 30.617188 1.40625 25.484375 1.40625 C 17.828125 1.40625 12.128906 -0.828125 8.390625 -5.296875 C 4.660156 -9.765625 2.796875 -15.328125 2.796875 -21.984375 C 2.796875 -25.722656 3.394531 -29.441406 4.59375 -33.140625 C 5.789062 -36.835938 7.554688 -40.300781 9.890625 -43.53125 C 12.222656 -46.757812 15.421875 -49.375 19.484375 -51.375 C 23.554688 -53.375 28.15625 -54.375 33.28125 -54.375 Z M 26.59375 -5.203125 C 30.789062 -5.203125 34.453125 -6.515625 37.578125 -9.140625 C 40.710938 -11.773438 42.992188 -14.988281 44.421875 -18.78125 C 45.859375 -22.582031 46.578125 -26.582031 46.578125 -30.78125 C 46.578125 -35.78125 45.359375 -39.863281 42.921875 -43.03125 C 40.492188 -46.195312 36.914062 -47.78125 32.1875 -47.78125 C 27.988281 -47.78125 24.320312 -46.460938 21.1875 -43.828125 C 18.0625 -41.191406 15.78125 -37.972656 14.34375 -34.171875 C 12.90625 -30.378906 12.1875 -26.382812 12.1875 -22.1875 C 12.1875 -17.1875 13.398438 -13.101562 15.828125 -9.9375 C 18.265625 -6.78125 21.851562 -5.203125 26.59375 -5.203125 Z M 26.59375 -5.203125" transform="translate(3059.316 2368.636)"/></g></g></g><g fill="#FFF"><g><g><path d="M 66.765625 -54.375 C 71.296875 -54.375 74.726562 -53.207031 77.0625 -50.875 C 79.394531 -48.539062 80.5625 -45.476562 80.5625 -41.6875 C 80.5625 -39.476562 80.195312 -36.378906 79.46875 -32.390625 L 73.765625 0 L 65.171875 0 L 70.171875 -28.390625 C 71.097656 -33.648438 71.5625 -37.3125 71.5625 -39.375 C 71.5625 -44.84375 68.566406 -47.578125 62.578125 -47.578125 C 59.171875 -47.578125 56.050781 -45.644531 53.21875 -41.78125 C 50.394531 -37.914062 48.378906 -32.785156 47.171875 -26.390625 L 47.171875 -26.1875 L 42.578125 0 L 33.984375 0 L 38.984375 -28.390625 C 39.910156 -33.648438 40.375 -37.3125 40.375 -39.375 C 40.375 -44.84375 37.378906 -47.578125 31.390625 -47.578125 C 27.984375 -47.578125 24.847656 -45.628906 21.984375 -41.734375 C 19.117188 -37.835938 17.125 -32.65625 16 -26.1875 L 11.390625 0 L 2.796875 0 L 12.09375 -52.96875 L 20.6875 -52.96875 L 19.296875 -45.171875 L 23.78125 -51.28125 C 26.71875 -53.34375 30.648438 -54.375 35.578125 -54.375 C 39.515625 -54.375 42.613281 -53.472656 44.875 -51.671875 C 47.144531 -49.878906 48.578125 -47.484375 49.171875 -44.484375 L 54.96875 -51.28125 C 57.90625 -53.34375 61.835938 -54.375 66.765625 -54.375 Z M 66.765625 -54.375" transform="translate(3120.09 2368.636)"/></g></g></g><g fill="#C9E265"><g><g><path d="M 255.375 -121.78125 C 238.398438 -75.652344 214.410156 -46.5 190.421875 -46.5 C 181.199219 -46.5 174.925781 -51.664062 174.925781 -61.628906 C 174.925781 -66.425781 176.398438 -73.4375 178.984375 -80.449219 L 250.945312 -281.574219 C 253.160156 -287.847656 254.265625 -293.386719 254.265625 -298.183594 C 254.265625 -315.15625 241.71875 -323.277344 228.066406 -323.277344 C 213.671875 -323.277344 197.804688 -314.789062 191.898438 -298.550781 C 180.460938 -315.15625 156.101562 -320.324219 139.867188 -320.324219 C 103.699219 -320.324219 67.902344 -299.660156 55.355469 -264.230469 L -4.796875 -94.84375 C -8.117188 -85.617188 -9.964844 -76.023438 -9.964844 -67.164062 C -9.964844 -28.046875 21.402344 0 62.367188 0 C 84.140625 0 108.128906 -9.59375 126.578125 -27.679688 C 139.128906 -9.59375 161.269531 0 185.996094 0 C 241.351562 0 277.886719 -45.761719 300.027344 -112.554688 C 301.132812 -115.507812 301.503906 -118.460938 301.503906 -121.042969 C 301.503906 -133.589844 291.171875 -140.972656 279.730469 -140.972656 C 269.765625 -140.972656 259.433594 -135.066406 255.375 -121.78125 Z M 74.914062 -55.726562 C 61.261719 -55.726562 52.773438 -65.320312 52.773438 -78.605469 C 52.773438 -83.035156 53.878906 -88.199219 55.726562 -93.734375 L 106.652344 -238.765625 C 112.925781 -256.113281 125.84375 -266.8125 140.601562 -266.8125 C 157.210938 -266.8125 171.972656 -253.160156 171.972656 -238.027344 C 171.972656 -235.445312 171.234375 -232.863281 170.496094 -230.28125 L 126.210938 -105.914062 C 111.820312 -65.320312 93.734375 -55.726562 74.914062 -55.726562 Z M 74.914062 -55.726562" transform="translate(1521.972 1809.104)"/></g></g></g><g fill="#C9E265"><g><g><path d="M 186.734375 -104.070312 C 170.496094 -61.261719 131.746094 -43.914062 100.378906 -43.914062 C 73.4375 -43.914062 56.460938 -56.832031 56.460938 -73.808594 C 56.460938 -77.128906 56.832031 -80.449219 58.308594 -84.140625 L 61.261719 -91.152344 C 71.960938 -84.507812 85.246094 -80.082031 100.007812 -80.082031 C 133.589844 -80.082031 163.113281 -101.117188 173.078125 -134.328125 C 174.925781 -141.339844 176.03125 -148.351562 176.03125 -154.625 C 176.03125 -189.683594 148.351562 -216.625 106.652344 -216.625 C 73.808594 -216.625 41.703125 -197.433594 28.785156 -160.53125 L 7.011719 -97.425781 C 4.058594 -88.570312 2.214844 -79.710938 2.214844 -71.222656 C 2.214844 -27.308594 43.546875 0 97.425781 0 C 148.722656 0 207.03125 -25.09375 231.386719 -95.582031 C 232.492188 -98.53125 232.863281 -101.117188 232.863281 -103.332031 C 232.863281 -114.769531 222.53125 -121.042969 211.457031 -121.042969 C 201.125 -121.042969 190.054688 -115.507812 186.734375 -104.070312 Z M 105.542969 -173.078125 C 115.878906 -173.078125 122.519531 -164.589844 122.519531 -153.890625 C 122.519531 -150.9375 122.152344 -147.984375 121.042969 -145.03125 C 117.355469 -132.855469 106.28125 -128.425781 95.210938 -128.425781 C 88.199219 -128.425781 81.1875 -129.902344 76.023438 -132.855469 L 83.773438 -154.996094 C 87.832031 -166.4375 97.058594 -173.078125 105.542969 -173.078125 Z M 105.542969 -173.078125" transform="translate(1900.235 1809.104)"/></g></g></g><g fill="#C9E265"><g><g><path d="M 195.957031 -104.4375 C 187.101562 -82.664062 174.1875 -67.535156 157.210938 -57.570312 C 157.949219 -62.367188 158.6875 -66.796875 158.6875 -71.59375 C 158.6875 -92.996094 147.246094 -113.292969 136.914062 -130.640625 C 129.53125 -143.1875 122.152344 -155.734375 120.675781 -167.175781 C 131.007812 -171.601562 139.128906 -183.410156 139.128906 -194.484375 C 139.128906 -210.351562 126.949219 -225.113281 108.496094 -225.113281 C 94.472656 -225.113281 80.449219 -218.101562 73.4375 -203.707031 C 59.046875 -175.660156 43.546875 -147.246094 28.785156 -119.566406 C 4.058594 -113.292969 -8.117188 -85.246094 -8.117188 -61.628906 C -8.117188 -25.464844 28.046875 2.582031 93.367188 2.582031 C 157.578125 2.582031 215.148438 -21.773438 240.980469 -96.320312 C 241.71875 -97.796875 241.71875 -99.640625 241.71875 -101.117188 C 241.71875 -111.820312 229.542969 -119.566406 217.730469 -119.566406 C 208.875 -119.566406 200.019531 -115.140625 195.957031 -104.4375 Z M 78.972656 -114.402344 L 82.296875 -121.414062 C 93.367188 -108.128906 102.222656 -90.414062 102.222656 -73.070312 C 102.222656 -55.726562 92.996094 -41.332031 73.4375 -40.59375 C 60.890625 -40.59375 49.820312 -46.128906 45.761719 -55.726562 C 48.714844 -54.988281 51.664062 -54.988281 54.25 -54.988281 C 75.652344 -54.988281 88.199219 -73.070312 88.199219 -91.152344 C 88.199219 -99.640625 85.246094 -108.128906 78.972656 -114.402344 Z M 78.972656 -114.402344" transform="translate(2075.158 1809.104)"/></g></g></g><g fill="#C9E265"><g><g><path d="M 197.066406 -99.269531 C 179.722656 -54.25 153.890625 -33.953125 129.902344 -25.09375 L 183.78125 -179.351562 C 185.257812 -184.148438 185.625 -188.210938 185.625 -191.898438 C 185.625 -208.507812 173.816406 -216.625 161.636719 -216.625 C 150.199219 -216.625 138.019531 -209.980469 133.960938 -196.695312 C 123.996094 -210.71875 108.128906 -216.625 90.046875 -216.625 C 65.6875 -216.625 39.117188 -203.339844 29.152344 -174.925781 L -4.058594 -78.972656 C -6.273438 -72.332031 -7.75 -65.6875 -7.75 -59.046875 C -7.75 -28.414062 16.976562 -3.320312 49.449219 -3.320312 C 54.617188 -3.320312 61.261719 -4.429688 66.425781 -5.535156 C 58.675781 16.605469 56.832031 21.035156 49.082031 42.808594 C 46.5 50.1875 45.390625 57.570312 45.390625 64.582031 C 45.390625 98.164062 74.175781 120.675781 108.128906 120.675781 C 138.390625 120.675781 170.863281 100.378906 178.984375 65.320312 C 180.089844 60.890625 180.089844 56.09375 180.089844 52.402344 C 180.089844 33.582031 172.339844 18.820312 161.269531 8.117188 C 194.484375 -8.117188 225.480469 -41.703125 243.933594 -97.796875 C 244.671875 -100.378906 245.039062 -102.59375 245.039062 -104.808594 C 245.039062 -115.878906 235.445312 -122.519531 224.742188 -122.519531 C 213.671875 -122.519531 202.96875 -115.140625 197.066406 -99.269531 Z M 112.925781 -138.390625 L 90.785156 -72.699219 C 80.449219 -51.296875 66.796875 -43.546875 57.199219 -43.914062 C 50.925781 -43.914062 46.867188 -48.34375 46.867188 -54.988281 C 46.867188 -58.308594 47.605469 -61.261719 48.714844 -64.210938 L 80.820312 -160.53125 C 83.402344 -168.648438 90.046875 -173.078125 96.6875 -173.078125 C 105.542969 -173.078125 114.402344 -164.222656 114.402344 -149.089844 C 114.402344 -145.769531 113.664062 -142.078125 112.925781 -138.390625 Z M 128.792969 53.878906 C 128.792969 65.6875 121.042969 76.761719 109.605469 76.761719 C 103.332031 76.761719 98.53125 72.699219 98.53125 67.164062 C 98.53125 65.320312 98.902344 63.472656 99.640625 61.628906 C 103.332031 50.925781 107.390625 40.226562 111.082031 29.523438 C 121.042969 33.953125 128.792969 42.808594 128.792969 53.878906 Z M 128.792969 53.878906" transform="translate(2259.308 1809.104)"/></g></g></g><g fill="#C9E265"><g><g><path d="M 211.457031 -107.019531 C 194.851562 -62.738281 174.554688 -43.914062 157.578125 -43.914062 C 150.9375 -43.914062 146.507812 -47.605469 146.507812 -52.773438 C 146.507812 -54.25 146.878906 -56.460938 147.613281 -58.308594 L 191.53125 -181.566406 C 193.007812 -185.257812 193.375 -188.578125 193.375 -191.898438 C 193.375 -206.660156 180.460938 -216.625 167.175781 -216.625 C 156.472656 -216.625 145.402344 -210.351562 139.867188 -194.851562 L 99.269531 -81.558594 C 88.9375 -61.261719 73.070312 -43.914062 58.308594 -43.914062 C 52.773438 -43.914062 49.820312 -47.605469 49.820312 -53.140625 C 49.820312 -56.09375 50.558594 -60.890625 51.664062 -64.582031 L 91.890625 -179.722656 C 93.367188 -183.78125 94.105469 -187.472656 94.105469 -191.160156 C 94.105469 -206.292969 80.820312 -216.625 67.164062 -216.625 C 56.832031 -216.625 45.761719 -210.351562 40.59375 -195.589844 L -2.582031 -69.75 C -4.796875 -63.105469 -5.90625 -56.460938 -5.90625 -50.1875 C -5.90625 -20.296875 18.453125 0 49.449219 0 C 71.59375 0 88.199219 -10.703125 101.855469 -25.464844 C 112.554688 -9.59375 132.484375 0 154.625 0 C 189.683594 0 229.910156 -21.773438 256.113281 -98.53125 C 256.851562 -100.746094 257.21875 -102.960938 257.21875 -105.175781 C 257.21875 -116.984375 246.148438 -123.996094 234.707031 -123.996094 C 225.113281 -123.996094 215.148438 -118.832031 211.457031 -107.019531 Z M 211.457031 -107.019531" transform="translate(2446.41 1809.104)"/></g></g></g><g fill="#C9E265"><g><g><path d="M 99.269531 -250.578125 C 115.878906 -250.578125 129.53125 -264.230469 129.53125 -281.207031 C 129.53125 -297.8125 115.878906 -311.097656 99.269531 -311.097656 C 82.664062 -311.097656 69.011719 -297.8125 69.011719 -281.207031 C 69.011719 -264.230469 82.664062 -250.578125 99.269531 -250.578125 Z M 49.449219 -62.367188 L 90.046875 -178.246094 C 91.519531 -183.042969 93.367188 -188.210938 93.367188 -191.898438 C 93.367188 -208.136719 81.1875 -216.625 68.640625 -216.625 C 57.199219 -216.625 45.023438 -208.507812 39.117188 -191.160156 C 27.308594 -156.472656 11.808594 -112.554688 0 -78.234375 C -2.214844 -70.855469 -5.167969 -60.890625 -5.167969 -54.617188 C -5.167969 -19.929688 23.617188 0 57.570312 0 C 93.734375 0 133.589844 -22.140625 159.425781 -98.53125 C 160.164062 -100.746094 160.53125 -102.960938 160.53125 -105.175781 C 160.53125 -116.617188 149.460938 -123.628906 138.390625 -123.628906 C 128.425781 -123.628906 118.460938 -118.460938 114.03125 -107.019531 C 96.6875 -59.046875 77.128906 -43.914062 62.367188 -43.914062 C 53.878906 -43.914062 48.34375 -49.449219 48.34375 -56.460938 C 48.34375 -58.308594 48.714844 -60.152344 49.449219 -62.367188 Z M 49.449219 -62.367188" transform="translate(2645.32 1809.104)"/></g></g></g><g fill="#C9E265"><g><g><path d="M 205.921875 -106.28125 C 189.683594 -62 169.386719 -43.914062 152.042969 -43.914062 C 145.402344 -43.914062 141.710938 -47.238281 141.710938 -53.511719 C 141.710938 -56.09375 142.449219 -59.046875 143.554688 -62.738281 L 172.339844 -144.664062 C 174.925781 -152.042969 176.398438 -158.6875 176.398438 -164.960938 C 176.398438 -194.484375 151.304688 -216.625 121.78125 -216.625 C 107.390625 -216.625 95.949219 -213.304688 86.355469 -206.292969 C 84.140625 -212.933594 74.914062 -216.625 64.949219 -216.625 C 54.617188 -216.625 44.652344 -211.828125 40.964844 -201.496094 L -20.667969 -29.152344 C -21.773438 -25.832031 -22.140625 -22.878906 -22.140625 -19.929688 C -22.140625 -6.273438 -11.441406 0.738281 0.367188 0.738281 C 13.285156 0.738281 28.046875 -7.378906 33.582031 -23.988281 C 46.5 -59.785156 64.210938 -110.34375 76.761719 -145.769531 C 86.722656 -164.222656 99.640625 -173.078125 109.972656 -173.078125 C 116.617188 -173.078125 121.414062 -168.648438 121.414062 -161.636719 C 121.414062 -159.054688 120.675781 -155.734375 119.566406 -152.414062 L 92.628906 -76.390625 C 89.675781 -67.902344 87.832031 -59.785156 87.832031 -52.035156 C 87.832031 -18.082031 115.878906 0 147.246094 0 C 184.886719 0 225.113281 -25.464844 250.578125 -97.425781 C 251.683594 -100.378906 252.421875 -103.332031 252.421875 -105.914062 C 252.421875 -117.722656 241.71875 -123.996094 230.648438 -123.996094 C 220.683594 -123.996094 209.613281 -118.460938 205.921875 -106.28125 Z M 205.921875 -106.28125" transform="translate(2747.175 1809.104)"/></g></g></g><g fill="#C9E265"><g><g><path d="M 231.386719 -124.734375 C 221.054688 -124.734375 209.613281 -118.460938 205.183594 -104.4375 C 190.792969 -59.046875 167.542969 -43.914062 150.9375 -43.914062 C 144.664062 -43.914062 140.972656 -47.238281 140.972656 -53.140625 C 140.972656 -56.09375 141.710938 -59.785156 142.816406 -63.84375 L 184.148438 -183.410156 C 185.625 -187.839844 186.363281 -191.898438 186.363281 -195.589844 C 186.363281 -211.828125 173.078125 -220.316406 159.425781 -220.316406 C 149.089844 -220.316406 138.390625 -215.519531 132.484375 -206.292969 C 124.734375 -211.089844 110.34375 -216.625 91.519531 -216.625 C 67.164062 -216.625 40.59375 -203.339844 30.628906 -174.925781 L -4.058594 -75.652344 C -6.273438 -69.011719 -7.75 -62.367188 -7.75 -55.726562 C -7.75 -25.09375 16.976562 0 49.449219 0 C 66.796875 0 84.507812 -7.75 98.164062 -19.929688 C 109.972656 -2.953125 136.175781 0 147.246094 0 C 177.875 0 218.839844 -15.5 242.457031 -75.285156 C 247.625 -89.675781 251.683594 -98.902344 251.683594 -105.542969 C 251.683594 -118.09375 242.089844 -124.734375 231.386719 -124.734375 Z M 109.605469 -128.425781 L 91.890625 -73.4375 C 84.140625 -49.449219 70.117188 -43.914062 62.367188 -43.914062 C 54.25 -43.914062 50.1875 -49.082031 50.1875 -57.570312 C 50.1875 -62.367188 51.296875 -66.796875 52.402344 -70.117188 L 76.023438 -144.292969 C 83.035156 -166.804688 93.367188 -169.757812 99.269531 -169.757812 C 106.28125 -169.757812 114.03125 -162.746094 114.03125 -150.199219 C 114.03125 -144.664062 112.554688 -137.652344 109.605469 -128.425781 Z M 109.605469 -128.425781" transform="translate(2940.919 1809.104)"/></g></g></g><g fill="#C9E265"><g><g><path d="M 205.921875 -106.28125 C 189.683594 -62 169.386719 -43.914062 152.042969 -43.914062 C 145.402344 -43.914062 141.710938 -47.238281 141.710938 -53.511719 C 141.710938 -56.09375 142.449219 -59.046875 143.554688 -62.738281 L 172.339844 -144.664062 C 174.925781 -152.042969 176.398438 -158.6875 176.398438 -164.960938 C 176.398438 -194.484375 151.304688 -216.625 121.78125 -216.625 C 107.390625 -216.625 95.949219 -213.304688 86.355469 -206.292969 C 84.140625 -212.933594 74.914062 -216.625 64.949219 -216.625 C 54.617188 -216.625 44.652344 -211.828125 40.964844 -201.496094 L -20.667969 -29.152344 C -21.773438 -25.832031 -22.140625 -22.878906 -22.140625 -19.929688 C -22.140625 -6.273438 -11.441406 0.738281 0.367188 0.738281 C 13.285156 0.738281 28.046875 -7.378906 33.582031 -23.988281 C 46.5 -59.785156 64.210938 -110.34375 76.761719 -145.769531 C 86.722656 -164.222656 99.640625 -173.078125 109.972656 -173.078125 C 116.617188 -173.078125 121.414062 -168.648438 121.414062 -161.636719 C 121.414062 -159.054688 120.675781 -155.734375 119.566406 -152.414062 L 92.628906 -76.390625 C 89.675781 -67.902344 87.832031 -59.785156 87.832031 -52.035156 C 87.832031 -18.082031 115.878906 0 147.246094 0 C 184.886719 0 225.113281 -25.464844 250.578125 -97.425781 C 251.683594 -100.378906 252.421875 -103.332031 252.421875 -105.914062 C 252.421875 -117.722656 241.71875 -123.996094 230.648438 -123.996094 C 220.683594 -123.996094 209.613281 -118.460938 205.921875 -106.28125 Z M 205.921875 -106.28125" transform="translate(3275.636 1809.104)"/></g></g></g><g fill="#C9E265"><g><g><path d="M 156.101562 -77.128906 C 156.101562 -76.761719 156.101562 -82.664062 154.625 -89.675781 C 157.210938 -91.519531 159.792969 -94.472656 162.007812 -97.796875 C 168.28125 -107.019531 179.351562 -139.128906 179.351562 -153.890625 C 179.351562 -191.53125 148.351562 -216.625 108.496094 -216.625 C 73.808594 -216.625 40.964844 -197.433594 29.152344 -164.589844 L 2.214844 -88.570312 C -1.105469 -79.34375 -2.582031 -70.117188 -2.582031 -62 C -2.582031 -23.25 30.628906 0 68.273438 0 C 97.058594 0 123.257812 -9.226562 138.757812 -35.796875 C 145.402344 -33.953125 153.152344 -32.84375 160.902344 -32.84375 C 204.445312 -32.84375 238.765625 -63.84375 251.316406 -102.59375 C 252.421875 -106.652344 253.160156 -110.34375 253.160156 -113.664062 C 253.160156 -127.316406 243.195312 -135.066406 232.492188 -135.066406 C 222.53125 -135.066406 212.195312 -129.164062 208.136719 -115.507812 C 200.019531 -92.628906 183.042969 -76.761719 161.269531 -76.761719 C 159.792969 -76.761719 157.578125 -76.761719 156.101562 -77.128906 Z M 121.78125 -133.960938 C 120.675781 -130.640625 119.566406 -127.6875 119.199219 -124.734375 C 98.902344 -126.949219 80.820312 -110.34375 80.820312 -88.199219 C 81.1875 -75.652344 87.460938 -69.011719 94.472656 -63.105469 C 89.675781 -50.1875 78.972656 -43.914062 67.535156 -43.914062 C 53.140625 -43.914062 49.449219 -52.773438 49.449219 -61.628906 C 49.449219 -68.640625 51.296875 -75.285156 52.773438 -78.972656 L 78.972656 -153.890625 C 83.402344 -166.066406 96.320312 -173.078125 107.757812 -173.078125 C 119.199219 -173.078125 126.578125 -165.328125 126.578125 -156.839844 C 126.578125 -150.199219 124.367188 -141.710938 121.78125 -133.960938 Z M 121.78125 -133.960938" transform="translate(3469.38 1809.104)"/></g></g></g><g fill="#C9E265"><g><g><path d="M 195.957031 -104.4375 C 187.101562 -82.664062 174.1875 -67.535156 157.210938 -57.570312 C 157.949219 -62.367188 158.6875 -66.796875 158.6875 -71.59375 C 158.6875 -92.996094 147.246094 -113.292969 136.914062 -130.640625 C 129.53125 -143.1875 122.152344 -155.734375 120.675781 -167.175781 C 131.007812 -171.601562 139.128906 -183.410156 139.128906 -194.484375 C 139.128906 -210.351562 126.949219 -225.113281 108.496094 -225.113281 C 94.472656 -225.113281 80.449219 -218.101562 73.4375 -203.707031 C 59.046875 -175.660156 43.546875 -147.246094 28.785156 -119.566406 C 4.058594 -113.292969 -8.117188 -85.246094 -8.117188 -61.628906 C -8.117188 -25.464844 28.046875 2.582031 93.367188 2.582031 C 157.578125 2.582031 215.148438 -21.773438 240.980469 -96.320312 C 241.71875 -97.796875 241.71875 -99.640625 241.71875 -101.117188 C 241.71875 -111.820312 229.542969 -119.566406 217.730469 -119.566406 C 208.875 -119.566406 200.019531 -115.140625 195.957031 -104.4375 Z M 78.972656 -114.402344 L 82.296875 -121.414062 C 93.367188 -108.128906 102.222656 -90.414062 102.222656 -73.070312 C 102.222656 -55.726562 92.996094 -41.332031 73.4375 -40.59375 C 60.890625 -40.59375 49.820312 -46.128906 45.761719 -55.726562 C 48.714844 -54.988281 51.664062 -54.988281 54.25 -54.988281 C 75.652344 -54.988281 88.199219 -73.070312 88.199219 -91.152344 C 88.199219 -99.640625 85.246094 -108.128906 78.972656 -114.402344 Z M 78.972656 -114.402344" transform="translate(1807.237 2162.967)"/></g></g></g><g fill="#C9E265"><g><g><path d="M 186.734375 -104.070312 C 170.496094 -61.261719 131.746094 -43.914062 100.378906 -43.914062 C 73.4375 -43.914062 56.460938 -56.832031 56.460938 -73.808594 C 56.460938 -77.128906 56.832031 -80.449219 58.308594 -84.140625 L 61.261719 -91.152344 C 71.960938 -84.507812 85.246094 -80.082031 100.007812 -80.082031 C 133.589844 -80.082031 163.113281 -101.117188 173.078125 -134.328125 C 174.925781 -141.339844 176.03125 -148.351562 176.03125 -154.625 C 176.03125 -189.683594 148.351562 -216.625 106.652344 -216.625 C 73.808594 -216.625 41.703125 -197.433594 28.785156 -160.53125 L 7.011719 -97.425781 C 4.058594 -88.570312 2.214844 -79.710938 2.214844 -71.222656 C 2.214844 -27.308594 43.546875 0 97.425781 0 C 148.722656 0 207.03125 -25.09375 231.386719 -95.582031 C 232.492188 -98.53125 232.863281 -101.117188 232.863281 -103.332031 C 232.863281 -114.769531 222.53125 -121.042969 211.457031 -121.042969 C 201.125 -121.042969 190.054688 -115.507812 186.734375 -104.070312 Z M 105.542969 -173.078125 C 115.878906 -173.078125 122.519531 -164.589844 122.519531 -153.890625 C 122.519531 -150.9375 122.152344 -147.984375 121.042969 -145.03125 C 117.355469 -132.855469 106.28125 -128.425781 95.210938 -128.425781 C 88.199219 -128.425781 81.1875 -129.902344 76.023438 -132.855469 L 83.773438 -154.996094 C 87.832031 -166.4375 97.058594 -173.078125 105.542969 -173.078125 Z M 105.542969 -173.078125" transform="translate(1991.386 2162.967)"/></g></g></g><g fill="#C9E265"><g><g><path d="M 211.457031 -107.019531 C 194.851562 -62.738281 174.554688 -43.914062 157.578125 -43.914062 C 150.9375 -43.914062 146.507812 -47.605469 146.507812 -52.773438 C 146.507812 -54.25 146.878906 -56.460938 147.613281 -58.308594 L 191.53125 -181.566406 C 193.007812 -185.257812 193.375 -188.578125 193.375 -191.898438 C 193.375 -206.660156 180.460938 -216.625 167.175781 -216.625 C 156.472656 -216.625 145.402344 -210.351562 139.867188 -194.851562 L 99.269531 -81.558594 C 88.9375 -61.261719 73.070312 -43.914062 58.308594 -43.914062 C 52.773438 -43.914062 49.820312 -47.605469 49.820312 -53.140625 C 49.820312 -56.09375 50.558594 -60.890625 51.664062 -64.582031 L 91.890625 -179.722656 C 93.367188 -183.78125 94.105469 -187.472656 94.105469 -191.160156 C 94.105469 -206.292969 80.820312 -216.625 67.164062 -216.625 C 56.832031 -216.625 45.761719 -210.351562 40.59375 -195.589844 L -2.582031 -69.75 C -4.796875 -63.105469 -5.90625 -56.460938 -5.90625 -50.1875 C -5.90625 -20.296875 18.453125 0 49.449219 0 C 71.59375 0 88.199219 -10.703125 101.855469 -25.464844 C 112.554688 -9.59375 132.484375 0 154.625 0 C 189.683594 0 229.910156 -21.773438 256.113281 -98.53125 C 256.851562 -100.746094 257.21875 -102.960938 257.21875 -105.175781 C 257.21875 -116.984375 246.148438 -123.996094 234.707031 -123.996094 C 225.113281 -123.996094 215.148438 -118.832031 211.457031 -107.019531 Z M 211.457031 -107.019531" transform="translate(2166.31 2162.967)"/></g></g></g><g fill="#C9E265"><g><g><path d="M 201.125 -106.28125 C 189.316406 -76.023438 167.914062 -56.460938 142.449219 -47.238281 L 145.769531 -54.988281 C 156.101562 -83.035156 166.804688 -113.664062 177.136719 -142.078125 C 179.351562 -148.351562 180.460938 -154.625 180.460938 -161.269531 C 180.460938 -191.160156 155.734375 -216.625 126.949219 -216.625 C 116.984375 -216.625 105.175781 -214.78125 97.058594 -208.136719 C 97.796875 -216.992188 85.617188 -224.003906 72.332031 -224.003906 C 60.152344 -224.003906 48.34375 -217.363281 42.808594 -201.863281 L -49.082031 57.9375 C -50.925781 62.738281 -51.664062 66.796875 -51.664062 70.484375 C -51.664062 85.617188 -39.117188 93.367188 -25.832031 93.367188 C -13.65625 93.367188 -1.476562 87.460938 2.953125 73.808594 L 32.476562 -13.65625 C 43.914062 -4.796875 66.058594 0 96.6875 0 C 168.28125 0 221.792969 -28.414062 246.148438 -98.164062 C 247.253906 -101.484375 247.992188 -104.4375 247.992188 -107.019531 C 247.992188 -119.199219 237.660156 -126.578125 226.589844 -126.578125 C 216.625 -126.578125 205.554688 -120.304688 201.125 -106.28125 Z M 52.035156 -67.902344 L 81.558594 -153.519531 C 85.984375 -166.804688 95.582031 -173.078125 105.914062 -173.078125 C 114.769531 -173.078125 122.890625 -166.804688 122.890625 -157.578125 C 122.890625 -154.257812 122.152344 -150.9375 121.042969 -147.246094 C 111.820312 -118.09375 101.484375 -90.785156 91.519531 -62 C 87.460938 -50.925781 77.496094 -44.285156 67.535156 -43.914062 C 57.9375 -43.914062 50.558594 -49.082031 50.558594 -59.414062 C 50.558594 -62 50.925781 -64.949219 52.035156 -67.902344 Z M 52.035156 -67.902344" transform="translate(2506.193 2162.967)"/></g></g></g><g fill="#C9E265"><g><g><path d="M 187.101562 -107.019531 C 173.078125 -70.855469 154.257812 -43.914062 138.757812 -43.914062 C 133.589844 -43.914062 131.007812 -48.714844 131.007812 -53.878906 C 131.007812 -56.09375 131.378906 -59.046875 132.484375 -62 L 154.257812 -122.519531 C 156.472656 -129.902344 157.949219 -136.542969 157.949219 -142.816406 C 157.949219 -177.875 113.664062 -192.636719 92.996094 -198.910156 C 94.105469 -201.863281 94.472656 -205.183594 94.472656 -208.136719 C 94.472656 -225.113281 79.34375 -239.503906 62.738281 -239.503906 C 40.964844 -239.503906 28.046875 -220.316406 28.046875 -199.28125 C 28.046875 -190.054688 31.367188 -180.460938 37.273438 -173.078125 L 10.332031 -100.378906 C 9.59375 -97.425781 9.226562 -94.472656 9.226562 -92.257812 C 9.226562 -80.082031 18.820312 -73.808594 29.152344 -73.808594 C 39.488281 -73.808594 50.1875 -79.710938 54.617188 -91.519531 L 75.285156 -146.878906 C 85.617188 -143.554688 99.269531 -140.972656 99.269531 -128.425781 C 99.269531 -126.578125 98.902344 -124.367188 98.164062 -121.78125 L 81.925781 -76.761719 C 78.972656 -68.273438 77.496094 -60.523438 77.496094 -53.140625 C 77.496094 -21.035156 102.960938 0 133.589844 0 C 173.816406 0 210.351562 -35.796875 232.125 -98.164062 C 232.863281 -100.378906 233.230469 -102.222656 233.230469 -104.070312 C 233.230469 -115.140625 221.054688 -122.519531 209.246094 -122.519531 C 199.648438 -122.519531 190.421875 -118.09375 187.101562 -107.019531 Z M 187.101562 -107.019531" transform="translate(2695.14 2162.967)"/></g></g></g><g fill="#C9E265"><g><g><path d="M 231.386719 -124.734375 C 221.054688 -124.734375 209.613281 -118.460938 205.183594 -104.4375 C 190.792969 -59.046875 167.542969 -43.914062 150.9375 -43.914062 C 144.664062 -43.914062 140.972656 -47.238281 140.972656 -53.140625 C 140.972656 -56.09375 141.710938 -59.785156 142.816406 -63.84375 L 184.148438 -183.410156 C 185.625 -187.839844 186.363281 -191.898438 186.363281 -195.589844 C 186.363281 -211.828125 173.078125 -220.316406 159.425781 -220.316406 C 149.089844 -220.316406 138.390625 -215.519531 132.484375 -206.292969 C 124.734375 -211.089844 110.34375 -216.625 91.519531 -216.625 C 67.164062 -216.625 40.59375 -203.339844 30.628906 -174.925781 L -4.058594 -75.652344 C -6.273438 -69.011719 -7.75 -62.367188 -7.75 -55.726562 C -7.75 -25.09375 16.976562 0 49.449219 0 C 66.796875 0 84.507812 -7.75 98.164062 -19.929688 C 109.972656 -2.953125 136.175781 0 147.246094 0 C 177.875 0 218.839844 -15.5 242.457031 -75.285156 C 247.625 -89.675781 251.683594 -98.902344 251.683594 -105.542969 C 251.683594 -118.09375 242.089844 -124.734375 231.386719 -124.734375 Z M 109.605469 -128.425781 L 91.890625 -73.4375 C 84.140625 -49.449219 70.117188 -43.914062 62.367188 -43.914062 C 54.25 -43.914062 50.1875 -49.082031 50.1875 -57.570312 C 50.1875 -62.367188 51.296875 -66.796875 52.402344 -70.117188 L 76.023438 -144.292969 C 83.035156 -166.804688 93.367188 -169.757812 99.269531 -169.757812 C 106.28125 -169.757812 114.03125 -162.746094 114.03125 -150.199219 C 114.03125 -144.664062 112.554688 -137.652344 109.605469 -128.425781 Z M 109.605469 -128.425781" transform="translate(2869.694 2162.967)"/></g></g></g><g fill="#C9E265"><g><g><path d="M 131.746094 -104.070312 C 116.984375 -63.472656 93.734375 -43.914062 72.332031 -43.914062 C 59.046875 -43.914062 50.925781 -52.035156 50.925781 -62 C 50.925781 -64.582031 51.664062 -67.535156 52.402344 -70.117188 L 88.570312 -173.078125 L 112.554688 -173.078125 C 131.378906 -173.078125 141.339844 -186.363281 141.339844 -198.542969 C 141.339844 -208.136719 135.066406 -216.625 121.042969 -216.625 L 104.4375 -216.625 L 129.164062 -288.585938 C 129.902344 -291.171875 130.269531 -293.386719 130.269531 -295.597656 C 130.269531 -309.253906 120.675781 -320.324219 104.4375 -320.324219 C 92.257812 -320.324219 81.925781 -311.835938 77.496094 -298.921875 L 47.976562 -216.625 L 32.476562 -216.625 C 12.546875 -216.625 4.058594 -204.078125 4.058594 -192.269531 C 4.058594 -181.933594 10.332031 -173.078125 20.296875 -173.078125 L 32.476562 -173.078125 L 1.476562 -84.140625 L 1.476562 -84.507812 C -1.476562 -75.652344 -2.953125 -67.535156 -2.953125 -59.785156 C -2.953125 -22.140625 30.628906 0 68.640625 0 C 115.878906 0 155.363281 -35.058594 176.398438 -95.582031 C 177.136719 -98.164062 177.875 -100.746094 177.875 -102.960938 C 177.875 -114.03125 167.175781 -121.042969 155.734375 -121.042969 C 146.507812 -121.042969 136.175781 -115.878906 131.746094 -104.070312 Z M 131.746094 -104.070312" transform="translate(3063.439 2162.967)"/></g></g></g><g fill="#C9E265"><g><g><path d="M 156.101562 -77.128906 C 156.101562 -76.761719 156.101562 -82.664062 154.625 -89.675781 C 157.210938 -91.519531 159.792969 -94.472656 162.007812 -97.796875 C 168.28125 -107.019531 179.351562 -139.128906 179.351562 -153.890625 C 179.351562 -191.53125 148.351562 -216.625 108.496094 -216.625 C 73.808594 -216.625 40.964844 -197.433594 29.152344 -164.589844 L 2.214844 -88.570312 C -1.105469 -79.34375 -2.582031 -70.117188 -2.582031 -62 C -2.582031 -23.25 30.628906 0 68.273438 0 C 97.058594 0 123.257812 -9.226562 138.757812 -35.796875 C 145.402344 -33.953125 153.152344 -32.84375 160.902344 -32.84375 C 204.445312 -32.84375 238.765625 -63.84375 251.316406 -102.59375 C 252.421875 -106.652344 253.160156 -110.34375 253.160156 -113.664062 C 253.160156 -127.316406 243.195312 -135.066406 232.492188 -135.066406 C 222.53125 -135.066406 212.195312 -129.164062 208.136719 -115.507812 C 200.019531 -92.628906 183.042969 -76.761719 161.269531 -76.761719 C 159.792969 -76.761719 157.578125 -76.761719 156.101562 -77.128906 Z M 121.78125 -133.960938 C 120.675781 -130.640625 119.566406 -127.6875 119.199219 -124.734375 C 98.902344 -126.949219 80.820312 -110.34375 80.820312 -88.199219 C 81.1875 -75.652344 87.460938 -69.011719 94.472656 -63.105469 C 89.675781 -50.1875 78.972656 -43.914062 67.535156 -43.914062 C 53.140625 -43.914062 49.449219 -52.773438 49.449219 -61.628906 C 49.449219 -68.640625 51.296875 -75.285156 52.773438 -78.972656 L 78.972656 -153.890625 C 83.402344 -166.066406 96.320312 -173.078125 107.757812 -173.078125 C 119.199219 -173.078125 126.578125 -165.328125 126.578125 -156.839844 C 126.578125 -150.199219 124.367188 -141.710938 121.78125 -133.960938 Z M 121.78125 -133.960938" transform="translate(3184.114 2162.967)"/></g></g></g></svg>